# This file uses centimeters as units for non-parametric coordinates.

mtllib CT Sim Room_Wall_B_20.mtl
g default
v -30.000000 0.000000 37.500000
v -20.000000 0.000000 37.500000
v -10.000000 0.000000 37.500000
v 0.000000 0.000000 37.500000
v 10.000000 0.000000 37.500000
v 20.000000 0.000000 37.500000
v 30.000000 0.000000 37.500000
v -30.000000 15.000000 37.500000
v -20.000000 15.000000 37.500000
v -10.000000 15.000000 37.500000
v 0.000000 15.000000 37.500000
v 10.000000 15.000000 37.500000
v 20.000000 15.000000 37.500000
v 30.000000 15.000000 37.500000
v -30.000000 15.000000 -37.500000
v -20.000000 15.000000 -37.500000
v -10.000000 15.000000 -37.500000
v 0.000000 15.000000 -37.500000
v 10.000000 15.000000 -37.500000
v 20.000000 15.000000 -37.500000
v 30.000000 15.000000 -37.500000
v -30.000000 0.000000 -37.500000
v -20.000000 0.000000 -37.500000
v -10.000000 0.000000 -37.500000
v 0.000000 0.000000 -37.500000
v 10.000000 0.000000 -37.500000
v 20.000000 0.000000 -37.500000
v 30.000000 0.000000 -37.500000
v -30.000000 0.000000 -26.785713
v 30.000000 0.000000 -26.785713
v -30.000000 0.000000 -16.071426
v 30.000000 0.000000 -16.071426
v -30.000000 0.000000 -5.357141
v 30.000000 0.000000 -5.357141
v -30.000000 0.000000 5.357145
v 30.000000 0.000000 5.357145
v -30.000000 0.000000 16.071430
v 30.000000 0.000000 16.071430
v -30.000000 0.000000 26.785717
v 30.000000 0.000000 26.785717
v 30.000000 15.000000 -26.785713
v 30.000000 15.000000 -16.071426
v 30.000000 15.000000 -5.357141
v 30.000000 15.000000 5.357145
v 30.000000 15.000000 16.071430
v 30.000000 15.000000 26.785717
v -30.000000 15.000000 -26.785713
v -30.000000 15.000000 -16.071426
v -30.000000 15.000000 -5.357141
v -30.000000 15.000000 5.357145
v -30.000000 15.000000 16.071430
v -30.000000 15.000000 26.785717
v -30.000000 15.000000 -36.000000
v -30.000000 0.000000 -36.000000
v -29.950001 0.000000 37.450001
v -29.950001 15.000000 37.450001
v -20.000000 15.000000 37.450001
v -20.000000 0.000000 37.450001
v -10.000000 15.000000 37.450001
v -10.000000 0.000000 37.450001
v 0.000000 15.000000 37.450001
v 0.000000 0.000000 37.450001
v 10.000000 15.000000 37.450001
v 10.000000 0.000000 37.450001
v 20.000000 15.000000 37.450001
v 20.000000 0.000000 37.450001
v 29.950001 15.000000 37.450001
v 29.950001 0.000000 37.450001
v -29.950001 15.000000 -37.450001
v -29.950001 0.000000 -37.450001
v -20.000000 0.000000 -37.450001
v -20.000000 15.000000 -37.450001
v -10.000000 0.000000 -37.450001
v -10.000000 15.000000 -37.450001
v 0.000000 0.000000 -37.450001
v 0.000000 15.000000 -37.450001
v 10.000001 0.000000 -37.450001
v 10.000001 15.000000 -37.450001
v 20.000000 0.000000 -37.450001
v 20.000000 15.000000 -37.450001
v 29.950001 0.000000 -37.450001
v 29.950001 15.000000 -37.450001
v 29.950001 0.000000 -26.785713
v 29.950001 15.000000 -26.785713
v 29.950001 0.000000 -16.071426
v 29.950001 15.000000 -16.071426
v 29.950001 0.000000 -5.357141
v 29.950001 15.000000 -5.357141
v 29.950001 0.000000 5.357145
v 29.950001 15.000000 5.357145
v 29.950001 0.000000 16.071430
v 29.950001 15.000000 16.071430
v 29.950001 0.000000 26.785717
v 29.950001 15.000000 26.785717
v -29.950001 15.000000 -36.000000
v -29.950001 0.000000 -36.000000
v -29.950001 0.000000 -26.785713
v -29.950001 15.000000 -26.785713
v -29.950001 15.000000 -16.071426
v -29.950001 0.000000 -16.071426
v -29.950001 15.000000 -5.357141
v -29.950001 0.000000 -5.357141
v -29.950001 15.000000 5.357145
v -29.950001 0.000000 5.357145
v -29.950001 15.000000 16.071430
v -29.950001 0.000000 16.071430
v -29.950001 15.000000 26.785717
v -29.950001 0.000000 26.785717
vt 0.375000 0.000000
vt 0.416667 0.000000
vt 0.458333 0.000000
vt 0.500000 0.000000
vt 0.541667 0.000000
vt 0.583333 0.000000
vt 0.625000 0.000000
vt 0.375000 0.083333
vt 0.416667 0.083333
vt 0.458333 0.083333
vt 0.500000 0.083333
vt 0.541667 0.083333
vt 0.583333 0.083333
vt 0.625000 0.083333
vt 0.375000 0.666667
vt 0.416667 0.666667
vt 0.458333 0.666667
vt 0.500000 0.666667
vt 0.541667 0.666667
vt 0.583333 0.666667
vt 0.625000 0.666667
vt 0.375000 0.750000
vt 0.416667 0.750000
vt 0.458333 0.750000
vt 0.500000 0.750000
vt 0.541667 0.750000
vt 0.583333 0.750000
vt 0.625000 0.750000
vt 0.875000 0.000000
vt 0.839286 0.000000
vt 0.803571 0.000000
vt 0.767857 0.000000
vt 0.732143 0.000000
vt 0.696429 0.000000
vt 0.660714 0.000000
vt 0.875000 0.083333
vt 0.839286 0.083333
vt 0.803571 0.083333
vt 0.767857 0.083333
vt 0.732143 0.083333
vt 0.696429 0.083333
vt 0.660714 0.083333
vt 0.125000 0.000000
vt 0.160714 0.000000
vt 0.196429 0.000000
vt 0.232143 0.000000
vt 0.267857 0.000000
vt 0.303571 0.000000
vt 0.339286 0.000000
vt 0.125000 0.083333
vt 0.160714 0.083333
vt 0.196429 0.083333
vt 0.232143 0.083333
vt 0.267857 0.083333
vt 0.303571 0.083333
vt 0.339286 0.083333
vt 0.142857 0.083333
vt 0.142857 0.000000
vt 0.375000 0.000000
vt 0.375000 0.083333
vt 0.416667 0.083333
vt 0.416667 0.000000
vt 0.458333 0.083333
vt 0.458333 0.000000
vt 0.500000 0.083333
vt 0.500000 0.000000
vt 0.541667 0.083333
vt 0.541667 0.000000
vt 0.583333 0.083333
vt 0.583333 0.000000
vt 0.625000 0.083333
vt 0.625000 0.000000
vt 0.375000 0.666667
vt 0.375000 0.750000
vt 0.416667 0.750000
vt 0.416667 0.666667
vt 0.458333 0.750000
vt 0.458333 0.666667
vt 0.500000 0.750000
vt 0.500000 0.666667
vt 0.541667 0.750000
vt 0.541667 0.666667
vt 0.583333 0.750000
vt 0.583333 0.666667
vt 0.625000 0.750000
vt 0.625000 0.666667
vt 0.839286 0.000000
vt 0.839286 0.083333
vt 0.875000 0.083333
vt 0.875000 0.000000
vt 0.803571 0.000000
vt 0.803571 0.083333
vt 0.767857 0.000000
vt 0.767857 0.083333
vt 0.732143 0.000000
vt 0.732143 0.083333
vt 0.696429 0.000000
vt 0.696429 0.083333
vt 0.660714 0.000000
vt 0.660714 0.083333
vt 0.125000 0.000000
vt 0.125000 0.083333
vt 0.142857 0.083333
vt 0.142857 0.000000
vt 0.160714 0.000000
vt 0.160714 0.083333
vt 0.196429 0.083333
vt 0.196429 0.000000
vt 0.232143 0.083333
vt 0.232143 0.000000
vt 0.267857 0.083333
vt 0.267857 0.000000
vt 0.303571 0.083333
vt 0.303571 0.000000
vt 0.339286 0.083333
vt 0.339286 0.000000
vt 0.375000 0.083333
vt 0.416667 0.083333
vt 0.416667 0.000000
vt 0.375000 0.000000
vt 0.458333 0.083333
vt 0.458333 0.000000
vt 0.500000 0.083333
vt 0.500000 0.000000
vt 0.541667 0.083333
vt 0.541667 0.000000
vt 0.583333 0.083333
vt 0.583333 0.000000
vt 0.625000 0.083333
vt 0.625000 0.000000
vt 0.375000 0.750000
vt 0.416667 0.750000
vt 0.416667 0.666667
vt 0.375000 0.666667
vt 0.458333 0.750000
vt 0.458333 0.666667
vt 0.500000 0.750000
vt 0.500000 0.666667
vt 0.541667 0.750000
vt 0.541667 0.666667
vt 0.583333 0.750000
vt 0.583333 0.666667
vt 0.625000 0.750000
vt 0.625000 0.666667
vt 0.839286 0.083333
vt 0.875000 0.083333
vt 0.875000 0.000000
vt 0.839286 0.000000
vt 0.803571 0.083333
vt 0.803571 0.000000
vt 0.767857 0.083333
vt 0.767857 0.000000
vt 0.732143 0.083333
vt 0.732143 0.000000
vt 0.696429 0.083333
vt 0.696429 0.000000
vt 0.660714 0.083333
vt 0.660714 0.000000
vt 0.125000 0.083333
vt 0.142857 0.083333
vt 0.142857 0.000000
vt 0.125000 0.000000
vt 0.160714 0.083333
vt 0.196429 0.083333
vt 0.196429 0.000000
vt 0.160714 0.000000
vt 0.232143 0.083333
vt 0.232143 0.000000
vt 0.267857 0.083333
vt 0.267857 0.000000
vt 0.303571 0.083333
vt 0.303571 0.000000
vt 0.339286 0.083333
vt 0.339286 0.000000
vn 0.000000 0.000000 -1.000000
vn 0.000000 0.000000 -1.000000
vn 0.000000 0.000000 -1.000000
vn 0.000000 0.000000 -1.000000
vn 0.000000 0.000000 -1.000000
vn 0.000000 0.000000 -1.000000
vn 0.000000 0.000000 -1.000000
vn 0.000000 0.000000 -1.000000
vn 0.000000 0.000000 -1.000000
vn 0.000000 0.000000 -1.000000
vn 0.000000 0.000000 -1.000000
vn 0.000000 0.000000 -1.000000
vn 0.000000 0.000000 -1.000000
vn 0.000000 0.000000 -1.000000
vn 0.000000 0.000000 1.000000
vn 0.000000 0.000000 1.000000
vn 0.000000 0.000000 1.000000
vn 0.000000 0.000000 1.000000
vn 0.000000 0.000000 1.000000
vn 0.000000 0.000000 1.000000
vn 0.000000 0.000000 1.000000
vn 0.000000 0.000000 1.000000
vn 0.000000 0.000000 1.000000
vn 0.000000 0.000000 1.000000
vn 0.000000 0.000000 1.000000
vn 0.000000 0.000000 1.000000
vn 0.000000 0.000000 1.000000
vn 0.000000 0.000000 1.000000
vn -1.000000 0.000000 0.000000
vn -1.000000 0.000000 0.000000
vn -1.000000 0.000000 0.000000
vn -1.000000 0.000000 0.000000
vn -1.000000 0.000000 0.000000
vn -1.000000 0.000000 0.000000
vn -1.000000 0.000000 0.000000
vn -1.000000 0.000000 0.000000
vn -1.000000 0.000000 0.000000
vn -1.000000 0.000000 0.000000
vn -1.000000 0.000000 0.000000
vn -1.000000 0.000000 0.000000
vn -1.000000 0.000000 0.000000
vn -1.000000 0.000000 0.000000
vn -1.000000 0.000000 0.000000
vn -1.000000 0.000000 0.000000
vn 1.000000 0.000000 0.000000
vn 1.000000 0.000000 0.000000
vn 1.000000 0.000000 0.000000
vn 1.000000 0.000000 0.000000
vn 1.000000 0.000000 0.000000
vn 1.000000 0.000000 0.000000
vn 1.000000 0.000000 0.000000
vn 1.000000 0.000000 0.000000
vn 1.000000 0.000000 0.000000
vn 1.000000 0.000000 0.000000
vn 1.000000 0.000000 0.000000
vn 1.000000 0.000000 0.000000
vn 1.000000 0.000000 0.000000
vn 1.000000 0.000000 0.000000
vn 1.000000 0.000000 0.000000
vn 1.000000 0.000000 0.000000
vn 1.000000 0.000000 0.000000
vn 1.000000 0.000000 0.000000
vn 0.000000 0.000000 1.000000
vn 0.000000 0.000000 1.000000
vn 0.000000 0.000000 1.000000
vn 0.000000 0.000000 1.000000
vn 0.000000 0.000000 1.000000
vn 0.000000 0.000000 1.000000
vn 0.000000 0.000000 1.000000
vn 0.000000 0.000000 1.000000
vn 0.000000 0.000000 1.000000
vn 0.000000 0.000000 1.000000
vn 0.000000 0.000000 1.000000
vn 0.000000 0.000000 1.000000
vn 0.000000 0.000000 1.000000
vn 0.000000 0.000000 1.000000
vn 0.000000 0.000000 -1.000000
vn 0.000000 0.000000 -1.000000
vn 0.000000 0.000000 -1.000000
vn 0.000000 0.000000 -1.000000
vn 0.000000 0.000000 -1.000000
vn 0.000000 0.000000 -1.000000
vn 0.000000 0.000000 -1.000000
vn 0.000000 0.000000 -1.000000
vn 0.000000 0.000000 -1.000000
vn 0.000000 0.000000 -1.000000
vn 0.000000 0.000000 -1.000000
vn 0.000000 0.000000 -1.000000
vn 0.000000 0.000000 -1.000000
vn 0.000000 0.000000 -1.000000
vn 1.000000 0.000000 0.000000
vn 1.000000 0.000000 0.000000
vn 1.000000 0.000000 0.000000
vn 1.000000 0.000000 0.000000
vn 1.000000 0.000000 0.000000
vn 1.000000 0.000000 0.000000
vn 1.000000 0.000000 0.000000
vn 1.000000 0.000000 0.000000
vn 1.000000 0.000000 0.000000
vn 1.000000 0.000000 0.000000
vn 1.000000 0.000000 0.000000
vn 1.000000 0.000000 0.000000
vn 1.000000 0.000000 0.000000
vn 1.000000 0.000000 0.000000
vn 1.000000 0.000000 0.000000
vn 1.000000 0.000000 0.000000
vn -1.000000 0.000000 0.000000
vn -1.000000 0.000000 0.000000
vn -1.000000 0.000000 0.000000
vn -1.000000 0.000000 0.000000
vn -1.000000 0.000000 0.000000
vn -1.000000 0.000000 0.000000
vn -1.000000 0.000000 0.000000
vn -1.000000 0.000000 0.000000
vn -1.000000 0.000000 0.000000
vn -1.000000 0.000000 0.000000
vn -1.000000 0.000000 0.000000
vn -1.000000 0.000000 0.000000
vn -1.000000 0.000000 0.000000
vn -1.000000 0.000000 0.000000
vn -1.000000 0.000000 0.000000
vn -1.000000 0.000000 0.000000
vn -1.000000 0.000000 0.000000
vn -1.000000 0.000000 0.000000
vn 0.000000 1.000000 0.000000
vn 0.000000 1.000000 0.000000
vn 0.000000 1.000000 0.000000
vn 0.000000 1.000000 0.000000
vn 0.000000 -1.000000 0.000000
vn 0.000000 -1.000000 0.000000
vn 0.000000 -1.000000 0.000000
vn 0.000000 -1.000000 0.000000
vn 0.000000 1.000000 0.000000
vn 0.000000 1.000000 0.000000
vn 0.000000 -1.000000 0.000000
vn 0.000000 -1.000000 0.000000
vn 0.000000 1.000000 0.000000
vn 0.000000 1.000000 0.000000
vn 0.000000 -1.000000 0.000000
vn 0.000000 -1.000000 0.000000
vn 0.000000 1.000000 0.000000
vn 0.000000 1.000000 0.000000
vn 0.000000 -1.000000 0.000000
vn 0.000000 -1.000000 0.000000
vn 0.000000 1.000000 0.000000
vn 0.000000 1.000000 0.000000
vn 0.000000 -1.000000 0.000004
vn 0.000000 -1.000000 0.000004
vn 0.000000 1.000000 0.000000
vn 0.000000 1.000000 0.000000
vn 0.000000 -1.000000 0.000004
vn 0.000000 -1.000000 0.000004
vn 0.000000 -1.000000 -0.000007
vn 0.000000 -1.000000 -0.000004
vn 0.000000 -1.000000 -0.000004
vn 0.000000 -1.000000 -0.000007
vn 0.000000 1.000000 0.000000
vn 0.000000 1.000000 0.000000
vn 0.000000 1.000000 0.000000
vn 0.000000 1.000000 0.000000
vn 0.000000 -1.000000 0.000000
vn 0.000000 -1.000000 0.000000
vn 0.000000 1.000000 0.000000
vn 0.000000 1.000000 0.000000
vn 0.000000 -1.000000 0.000000
vn 0.000000 -1.000000 0.000000
vn 0.000000 1.000000 0.000000
vn 0.000000 1.000000 0.000000
vn 0.000000 -1.000000 0.000001
vn 0.000000 -1.000000 0.000001
vn 0.000000 1.000000 0.000000
vn 0.000000 1.000000 0.000000
vn 0.000000 -1.000000 0.000001
vn 0.000000 -1.000000 0.000001
vn 0.000000 1.000000 0.000000
vn 0.000000 1.000000 0.000000
vn 0.000000 -1.000000 0.000000
vn 0.000000 -1.000000 0.000000
vn 0.000000 1.000000 0.000000
vn 0.000000 1.000000 0.000000
vn 0.000000 1.000000 0.000000
vn 0.000000 1.000000 0.000000
vn 0.000000 -1.000000 0.000000
vn 0.000000 -1.000000 0.000000
vn 0.000000 1.000000 0.000000
vn 0.000000 1.000000 0.000000
vn 0.000000 -1.000000 0.000000
vn 0.000000 -1.000000 0.000000
vn 0.000000 1.000000 0.000000
vn 0.000000 1.000000 0.000000
vn 0.000000 -1.000000 0.000000
vn 0.000000 -1.000000 0.000000
vn 0.000000 1.000000 0.000000
vn 0.000000 1.000000 0.000000
vn 0.000000 -1.000000 0.000000
vn 0.000000 -1.000000 0.000000
vn 0.000000 1.000000 0.000000
vn 0.000000 1.000000 0.000000
vn 0.000000 -1.000000 0.000000
vn 0.000000 -1.000000 0.000000
vn 0.000000 1.000000 0.000000
vn 0.000000 1.000000 0.000000
vn 0.000000 -1.000000 0.000000
vn 0.000000 -1.000000 0.000000
vn 0.000000 1.000000 0.000000
vn 0.000000 1.000000 0.000000
vn 0.000000 -1.000000 0.000000
vn 0.000000 -1.000000 0.000000
vn 0.000000 1.000000 0.000000
vn 0.000000 1.000000 0.000000
vn 0.000000 1.000000 0.000000
vn 0.000000 1.000000 0.000000
vn 0.000000 -1.000000 0.000000
vn 0.000000 -1.000000 0.000000
vn 0.000000 -1.000000 0.000000
vn 0.000000 -1.000000 0.000000
vn 0.000000 1.000000 0.000000
vn 0.000000 1.000000 0.000000
vn 0.000000 -1.000000 0.000000
vn 0.000000 -1.000000 0.000000
vn 0.000000 1.000000 0.000000
vn 0.000000 1.000000 0.000000
vn 0.000000 -1.000000 0.000000
vn 0.000000 -1.000000 0.000000
vn 0.000000 1.000000 0.000000
vn 0.000000 1.000000 0.000000
vn 0.000000 -1.000000 0.000000
vn 0.000000 -1.000000 0.000000
vn 0.000000 1.000000 0.000000
vn 0.000000 1.000000 0.000000
vn 0.000000 -1.000000 0.000000
vn 0.000000 -1.000000 0.000000
s 1
g WLWA_020
usemtl phong1SG
f 55/120/1 56/117/2 57/118/3 58/119/4
f 58/119/4 57/118/3 59/121/5 60/122/6
f 60/122/6 59/121/5 61/123/7 62/124/8
f 62/124/8 61/123/7 63/125/9 64/126/10
f 64/126/10 63/125/9 65/127/11 66/128/12
f 66/128/12 65/127/11 67/129/13 68/130/14
s 2
f 69/134/15 70/131/16 71/132/17 72/133/18
f 72/133/18 71/132/17 73/135/19 74/136/20
f 74/136/20 73/135/19 75/137/21 76/138/22
f 76/138/22 75/137/21 77/139/23 78/140/24
f 78/140/24 77/139/23 79/141/25 80/142/26
f 80/142/26 79/141/25 81/143/27 82/144/28
s 3
f 83/148/29 84/145/30 82/146/31 81/147/32
f 85/150/33 86/149/34 84/145/30 83/148/29
f 87/152/35 88/151/36 86/149/34 85/150/33
f 89/154/37 90/153/38 88/151/36 87/152/35
f 91/156/39 92/155/40 90/153/38 89/154/37
f 93/158/41 94/157/42 92/155/40 91/156/39
f 68/130/43 67/129/44 94/157/42 93/158/41
s 4
f 70/162/45 69/159/46 95/160/47 96/161/48
f 97/166/49 98/163/50 99/164/51 100/165/52
f 100/165/52 99/164/51 101/167/53 102/168/54
f 102/168/54 101/167/53 103/169/55 104/170/56
f 104/170/56 103/169/55 105/171/57 106/172/58
f 106/172/58 105/171/57 107/173/59 108/174/60
f 108/174/60 107/173/59 56/117/61 55/120/62
f 96/161/48 95/160/47 98/163/50 97/166/49
s 5
f 1/59/63 2/62/64 9/61/65 8/60/66
f 2/62/64 3/64/67 10/63/68 9/61/65
f 3/64/67 4/66/69 11/65/70 10/63/68
f 4/66/69 5/68/71 12/67/72 11/65/70
f 5/68/71 6/70/73 13/69/74 12/67/72
f 6/70/73 7/72/75 14/71/76 13/69/74
s 6
f 15/73/77 16/76/78 23/75/79 22/74/80
f 16/76/78 17/78/81 24/77/82 23/75/79
f 17/78/81 18/80/83 25/79/84 24/77/82
f 18/80/83 19/82/85 26/81/86 25/79/84
f 19/82/85 20/84/87 27/83/88 26/81/86
f 20/84/87 21/86/89 28/85/90 27/83/88
s 7
f 30/87/91 28/90/92 21/89/93 41/88/94
f 32/91/95 30/87/91 41/88/94 42/92/96
f 34/93/97 32/91/95 42/92/96 43/94/98
f 36/95/99 34/93/97 43/94/98 44/96/100
f 38/97/101 36/95/99 44/96/100 45/98/102
f 40/99/103 38/97/101 45/98/102 46/100/104
f 7/72/105 40/99/103 46/100/104 14/71/106
s 8
f 22/101/107 54/104/108 53/103/109 15/102/110
f 29/105/111 31/108/112 48/107/113 47/106/114
f 31/108/112 33/110/115 49/109/116 48/107/113
f 33/110/115 35/112/117 50/111/118 49/109/116
f 35/112/117 37/114/119 51/113/120 50/111/118
f 37/114/119 39/116/121 52/115/122 51/113/120
f 39/116/121 1/59/123 8/60/124 52/115/122
f 54/104/108 29/105/111 47/106/114 53/103/109
s 10
f 8/8/125 9/9/126 57/118/127 56/117/128
s 11
f 2/2/129 1/1/130 55/120/131 58/119/132
s 10
f 9/9/126 10/10/133 59/121/134 57/118/127
s 11
f 3/3/135 2/2/129 58/119/132 60/122/136
s 10
f 10/10/133 11/11/137 61/123/138 59/121/134
s 11
f 4/4/139 3/3/135 60/122/136 62/124/140
s 10
f 11/11/137 12/12/141 63/125/142 61/123/138
s 11
f 5/5/143 4/4/139 62/124/140 64/126/144
s 10
f 12/12/141 13/13/145 65/127/146 63/125/142
s 11
f 6/6/147 5/5/143 64/126/144 66/128/148
s 10
f 13/13/145 14/14/149 67/129/150 65/127/146
s 11
f 7/7/151 6/6/147 66/128/148 68/130/152
f 22/22/153 23/23/154 71/132/155 70/131/156
s 10
f 16/16/157 15/15/158 69/134/159 72/133/160
s 11
f 23/23/154 24/24/161 73/135/162 71/132/155
s 10
f 17/17/163 16/16/157 72/133/160 74/136/164
s 11
f 24/24/161 25/25/165 75/137/166 73/135/162
s 10
f 18/18/167 17/17/163 74/136/164 76/138/168
s 11
f 25/25/165 26/26/169 77/139/170 75/137/166
s 10
f 19/19/171 18/18/167 76/138/168 78/140/172
s 11
f 26/26/169 27/27/173 79/141/174 77/139/170
s 10
f 20/20/175 19/19/171 78/140/172 80/142/176
s 11
f 27/27/173 28/28/177 81/143/178 79/141/174
s 10
f 21/21/179 20/20/175 80/142/176 82/144/180
f 41/37/181 21/36/179 82/146/180 84/145/182
s 11
f 28/29/177 30/30/183 83/148/184 81/147/178
s 10
f 42/38/185 41/37/181 84/145/182 86/149/186
s 11
f 30/30/183 32/31/187 85/150/188 83/148/184
s 10
f 43/39/189 42/38/185 86/149/186 88/151/190
s 11
f 32/31/187 34/32/191 87/152/192 85/150/188
s 10
f 44/40/193 43/39/189 88/151/190 90/153/194
s 11
f 34/32/191 36/33/195 89/154/196 87/152/192
s 10
f 45/41/197 44/40/193 90/153/194 92/155/198
s 11
f 36/33/195 38/34/199 91/156/200 89/154/196
s 10
f 46/42/201 45/41/197 92/155/198 94/157/202
s 11
f 38/34/199 40/35/203 93/158/204 91/156/200
s 10
f 14/14/149 46/42/201 94/157/202 67/129/150
s 11
f 40/35/203 7/7/151 68/130/152 93/158/204
s 10
f 15/50/158 53/57/205 95/160/206 69/159/159
s 11
f 54/58/207 22/43/153 70/162/156 96/161/208
s 10
f 47/51/209 48/52/210 99/164/211 98/163/212
s 11
f 31/45/213 29/44/214 97/166/215 100/165/216
s 10
f 48/52/210 49/53/217 101/167/218 99/164/211
s 11
f 33/46/219 31/45/213 100/165/216 102/168/220
s 10
f 49/53/217 50/54/221 103/169/222 101/167/218
s 11
f 35/47/223 33/46/219 102/168/220 104/170/224
s 10
f 50/54/221 51/55/225 105/171/226 103/169/222
s 11
f 37/48/227 35/47/223 104/170/224 106/172/228
s 10
f 51/55/225 52/56/229 107/173/230 105/171/226
s 11
f 39/49/231 37/48/227 106/172/228 108/174/232
s 10
f 52/56/229 8/8/125 56/117/128 107/173/230
s 11
f 1/1/130 39/49/231 108/174/232 55/120/131
s 10
f 53/57/205 47/51/209 98/163/212 95/160/206
s 11
f 29/44/214 54/58/207 96/161/208 97/166/215
